<?xml version="1.0" encoding="utf-8"?>
<!-- Generator: Adobe Illustrator 16.0.0, SVG Export Plug-In . SVG Version: 6.00 Build 0)  -->
<!DOCTYPE svg PUBLIC "-//W3C//DTD SVG 1.1//EN" "http://www.w3.org/Graphics/SVG/1.1/DTD/svg11.dtd">
<svg version="1.1" id="Layer_1" xmlns="http://www.w3.org/2000/svg" xmlns:xlink="http://www.w3.org/1999/xlink" x="0px" y="0px"
	 width="1024px" height="338.889px" viewBox="0 0 1024 338.889" enable-background="new 0 0 1024 338.889" xml:space="preserve">
<path fill="#1C75BC" d="M935.167,195.863c-0.236-0.81-0.53-1.579-0.866-2.362c-0.31-0.783-0.671-1.58-1.077-2.39l-0.434-0.352
	c-0.166-0.083-0.364-0.14-0.587-0.14c-0.209,0-0.447,0.015-0.727,0.099c-0.253,0.041-0.56,0.14-0.896,0.294
	c-1.468,0.699-2.964,1.411-4.46,2.098c-1.495,0.697-2.964,1.396-4.432,2.068c-1.453,0.671-2.907,1.328-4.363,1.971
	c-1.467,0.643-2.907,1.301-4.333,1.917c-0.253,0.124-0.477,0.266-0.685,0.391l-0.434,0.391l-0.237,0.378l-0.028,0.391l0.014,0.029
	l0.028,0.028v0.042l0.028,0.042c0.419,0.601,0.837,1.217,1.188,1.804c0.377,0.601,0.739,1.215,1.049,1.815
	c0.307,0.575,0.587,1.176,0.866,1.764c0.251,0.601,0.476,1.188,0.67,1.761l0.308,0.266l0.446,0.127c0.184,0.013,0.38,0,0.617-0.028
	c0.224-0.029,0.476-0.099,0.798-0.182c1.396-0.448,2.78-0.908,4.18-1.385c1.412-0.476,2.824-0.964,4.237-1.44
	c1.383-0.489,2.808-1.007,4.208-1.524c1.425-0.502,2.837-1.034,4.249-1.578c0.28-0.099,0.546-0.253,0.783-0.364
	c0.21-0.141,0.405-0.28,0.559-0.434l0.336-0.461l0.111-0.476c-0.111-0.755-0.252-1.511-0.447-2.25
	C935.672,197.386,935.419,196.631,935.167,195.863"/>
<path fill="#1C75BC" d="M909.399,181.979c-1.438,0.952-2.866,1.889-4.263,2.799c-1.399,0.921-2.797,1.815-4.167,2.696l-0.518,0.435
	l-0.335,0.391l-0.169,0.421l0.028,0.349l0.042,0.111l0.057,0.125l0.083,0.112l0.084,0.099c0.839,0.614,1.636,1.229,2.377,1.859
	c0.756,0.63,1.482,1.244,2.194,1.873c0.687,0.615,1.329,1.245,2.001,1.859c0.587,0.615,1.2,1.23,1.76,1.872l0.505,0.253
	c0.194,0.043,0.405,0.07,0.616,0.07c0.223,0,0.46-0.042,0.726-0.099c0.278-0.068,0.56-0.152,0.866-0.292
	c1.453-0.672,2.854-1.371,4.32-2.056c1.469-0.67,2.909-1.386,4.377-2.126c1.467-0.698,2.964-1.454,4.446-2.18
	c1.48-0.754,2.991-1.511,4.5-2.279c0.252-0.14,0.476-0.295,0.645-0.434l0.474-0.46l0.252-0.421l0.086-0.461l-0.028-0.099
	l-0.028-0.112l-0.029-0.111l-0.028-0.097c-0.585-0.826-1.173-1.665-1.816-2.491c-0.644-0.837-1.342-1.69-2.041-2.528
	c-0.728-0.868-1.511-1.734-2.293-2.574c-0.838-0.866-1.679-1.719-2.572-2.585c-0.209-0.154-0.447-0.266-0.699-0.349
	c-0.253-0.085-0.503-0.114-0.783-0.1c-0.279,0.015-0.559,0.1-0.866,0.209c-0.307,0.099-0.63,0.252-0.98,0.447
	c-1.479,0.993-2.99,2-4.473,2.993C912.294,180.065,910.841,181.042,909.399,181.979"/>
<path fill="#1C75BC" d="M884.976,172.514c-1.188,1.202-2.349,2.406-3.495,3.608l-0.321,0.476l-0.21,0.418l-0.057,0.42l0.057,0.351
	l0.112,0.195l0.14,0.182l0.196,0.167l0.223,0.153c1.23,0.588,2.405,1.175,3.579,1.776c1.174,0.588,2.265,1.188,3.384,1.79
	c1.09,0.601,2.152,1.202,3.188,1.804c1.035,0.615,2.014,1.23,2.963,1.832c0.239,0.14,0.477,0.209,0.728,0.236
	c0.237,0.041,0.503,0.041,0.755,0c0.252-0.027,0.518-0.111,0.812-0.224c0.251-0.097,0.53-0.251,0.84-0.405
	c1.342-0.979,2.711-1.901,4.081-2.88c1.385-0.978,2.796-1.958,4.194-2.964c1.426-1.008,2.852-2.014,4.32-3.062
	c1.44-1.049,2.937-2.097,4.432-3.202l0.488-0.447l0.352-0.489l0.195-0.447l0.013-0.434l-0.068-0.209l-0.085-0.196l-0.138-0.225
	l-0.169-0.195c-1.09-0.866-2.208-1.761-3.355-2.613c-1.203-0.882-2.432-1.763-3.664-2.616c-1.285-0.88-2.572-1.748-3.928-2.613
	c-1.384-0.867-2.782-1.72-4.236-2.573c-0.336-0.141-0.671-0.252-1.007-0.293c-0.307-0.042-0.657-0.042-0.951,0.013
	c-0.336,0.072-0.643,0.169-0.979,0.363c-0.307,0.156-0.629,0.38-0.951,0.645c-1.326,1.343-2.655,2.698-3.969,4.026
	c-1.288,1.314-2.546,2.615-3.803,3.901C887.408,170.042,886.177,171.27,884.976,172.514"/>
<path fill="#1C75BC" d="M869.54,173.452c1.398,0.532,2.768,1.048,4.141,1.594c0.319,0.099,0.613,0.126,0.894,0.141
	c0.308,0.014,0.558-0.029,0.839-0.111c0.266-0.071,0.53-0.183,0.796-0.352c0.265-0.153,0.518-0.349,0.784-0.614
	c1.09-1.229,2.167-2.488,3.298-3.775c1.134-1.301,2.307-2.601,3.454-3.928c1.202-1.357,2.432-2.712,3.663-4.083
	c1.231-1.398,2.503-2.81,3.788-4.236c0.127-0.195,0.239-0.362,0.351-0.531l0.182-0.504l0.098-0.477l-0.056-0.432l-0.14-0.307
	l-0.195-0.322l-0.31-0.266l-0.363-0.294c-1.649-0.812-3.327-1.62-5.062-2.419c-1.761-0.811-3.537-1.594-5.354-2.363
	c-1.83-0.78-3.705-1.524-5.606-2.263c-1.929-0.728-3.872-1.469-5.844-2.153c-0.461-0.112-0.881-0.155-1.259-0.155
	c-0.405,0-0.754,0.072-1.09,0.21c-0.351,0.112-0.671,0.293-0.964,0.532c-0.267,0.224-0.56,0.531-0.799,0.88
	c-0.95,1.734-1.873,3.453-2.752,5.145c-0.882,1.664-1.748,3.301-2.56,4.909c-0.84,1.592-1.607,3.173-2.393,4.724
	c-0.738,1.524-1.495,3.035-2.194,4.517l-0.125,0.489l-0.042,0.406l0.026,0.405l0.141,0.349l0.169,0.279l0.278,0.253l0.338,0.225
	l0.418,0.18c1.553,0.435,3.104,0.895,4.627,1.357c1.524,0.476,3.021,0.949,4.489,1.454
	C866.689,172.417,868.114,172.934,869.54,173.452"/>
<path fill="#1C75BC" d="M936.593,205.063l-0.168-0.321l-0.376-0.142c-0.154-0.013-0.351-0.013-0.56,0.029
	c-0.239,0.013-0.518,0.098-0.799,0.169c-1.383,0.501-2.767,0.978-4.166,1.454c-1.37,0.488-2.738,0.936-4.137,1.396
	c-1.4,0.447-2.783,0.894-4.168,1.328c-1.369,0.434-2.753,0.84-4.137,1.272c-0.281,0.099-0.518,0.182-0.729,0.294l-0.559,0.322
	l-0.32,0.349l-0.154,0.336c0.069,0.545,0.139,1.076,0.154,1.594c0.013,0.518,0,1.021-0.016,1.511
	c-0.042,0.515-0.111,1.02-0.195,1.495c-0.083,0.489-0.167,0.95-0.294,1.396v0.029v0.028v0.014l0.127,0.194l0.32,0.085h0.489
	c0.169,0,0.393-0.043,0.629-0.085c1.288-0.307,2.588-0.585,3.873-0.907c0.952-0.225,1.875-0.477,2.824-0.713
	c4.502-2.797,8.64-5.746,12.164-8.85c0-0.1,0.027-0.182,0.057-0.266C936.537,206.432,936.593,205.748,936.593,205.063"/>
<path fill="#27AAE1" d="M893.029,215.129c1.384-0.336,2.739-0.685,4.109-1.035c1.342-0.363,2.713-0.74,4.084-1.091
	c1.368-0.377,2.738-0.754,4.108-1.159c1.399-0.42,2.768-0.825,4.141-1.217c0.292-0.112,0.544-0.209,0.754-0.309l0.503-0.307
	l0.309-0.363l0.083-0.349c-0.224-0.547-0.476-1.092-0.728-1.651c-0.278-0.56-0.56-1.118-0.895-1.665
	c-0.322-0.558-0.656-1.132-1.035-1.703c-0.39-0.56-0.782-1.119-1.23-1.706l-0.418-0.225l-0.56-0.085
	c-0.224,0.016-0.434,0.043-0.699,0.085c-0.25,0.056-0.546,0.154-0.839,0.252c-1.398,0.574-2.797,1.146-4.166,1.72
	c-1.384,0.544-2.74,1.104-4.111,1.649c-1.371,0.532-2.713,1.048-4.081,1.565c-1.344,0.505-2.671,1.006-3.986,1.523
	c-0.265,0.1-0.476,0.211-0.655,0.31l-0.435,0.279l-0.208,0.294l0.013,0.265v0.015l0.013,0.015v0.027
	c0.422,0.406,0.797,0.797,1.147,1.202c0.336,0.391,0.699,0.796,1.007,1.202c0.322,0.393,0.613,0.796,0.881,1.175
	c0.266,0.418,0.518,0.812,0.755,1.217l0.32,0.139l0.449,0.112c0.167,0,0.362-0.015,0.614-0.042
	C892.483,215.255,892.749,215.169,893.029,215.129"/>
<path fill="#27AAE1" d="M894.79,204.322c1.355-0.588,2.713-1.188,4.081-1.789c1.386-0.601,2.742-1.203,4.141-1.817
	c0.236-0.125,0.447-0.266,0.643-0.378l0.393-0.363l0.25-0.364v-0.336l-0.026-0.042l-0.029-0.057l-0.027-0.055l-0.029-0.055
	c-0.56-0.575-1.147-1.147-1.761-1.735c-0.644-0.574-1.285-1.159-1.956-1.734c-0.673-0.572-1.386-1.159-2.127-1.747
	c-0.754-0.558-1.509-1.16-2.32-1.732c-0.195-0.084-0.393-0.153-0.616-0.196c-0.224-0.057-0.447-0.057-0.699-0.015
	c-0.224,0.029-0.474,0.1-0.754,0.196c-0.251,0.069-0.531,0.21-0.824,0.363c-1.301,0.826-2.588,1.636-3.873,2.406
	c-1.259,0.824-2.518,1.594-3.762,2.361c-1.242,0.77-2.459,1.511-3.677,2.238c-1.201,0.727-2.403,1.468-3.565,2.18l-0.461,0.364
	l-0.335,0.335l-0.112,0.309l0.027,0.265l0.027,0.044l0.058,0.055l0.055,0.055l0.057,0.041c0.643,0.393,1.285,0.785,1.901,1.163
	c0.588,0.405,1.189,0.768,1.762,1.173c0.559,0.393,1.104,0.783,1.636,1.175c0.545,0.391,1.021,0.77,1.523,1.189l0.435,0.138
	l0.56,0.029c0.182-0.029,0.405-0.042,0.657-0.112c0.25-0.055,0.502-0.125,0.782-0.237c1.313-0.531,2.643-1.063,3.956-1.636
	C892.106,205.454,893.448,204.894,894.79,204.322"/>
<path fill="#27AAE1" d="M882.794,195.612c1.203-0.812,2.434-1.623,3.664-2.46c1.259-0.84,2.488-1.706,3.747-2.574l0.447-0.419
	l0.32-0.377l0.128-0.377l-0.042-0.352l-0.044-0.097l-0.083-0.14l-0.112-0.084l-0.111-0.127c-0.937-0.572-1.874-1.132-2.88-1.69
	c-0.978-0.56-2.013-1.134-3.048-1.691c-1.063-0.546-2.125-1.105-3.245-1.638c-1.118-0.53-2.263-1.09-3.439-1.607
	c-0.265-0.083-0.53-0.125-0.782-0.14c-0.252-0.013-0.517,0.015-0.768,0.085c-0.267,0.055-0.504,0.169-0.77,0.308
	c-0.224,0.14-0.476,0.321-0.728,0.559c-1.035,1.077-2.07,2.14-3.062,3.202c-1.021,1.048-2,2.083-2.965,3.076
	c-0.937,1.02-1.872,2.013-2.81,2.979c-0.895,0.948-1.788,1.916-2.671,2.837l-0.293,0.405l-0.141,0.336l-0.042,0.335l0.1,0.253
	l0.055,0.125l0.112,0.086l0.127,0.082l0.124,0.1c0.868,0.334,1.734,0.655,2.601,0.991c0.839,0.351,1.665,0.699,2.461,1.035
	c0.824,0.363,1.623,0.712,2.405,1.075c0.754,0.365,1.524,0.714,2.266,1.106l0.53,0.096l0.588-0.028
	c0.224-0.055,0.432-0.124,0.67-0.208c0.238-0.1,0.475-0.239,0.727-0.377c1.118-0.741,2.265-1.512,3.441-2.294
	C880.417,197.233,881.62,196.45,882.794,195.612"/>
<path fill="#27AAE1" d="M869.54,237.343c-0.167,0-0.349,0-0.503-0.013c-0.628-0.042-1.286-0.097-1.901-0.153
	c-0.644-0.041-1.258-0.125-1.901-0.21c-0.615-0.084-1.26-0.18-1.874-0.279l-0.447-0.069l-0.446-0.015l-0.448-0.027h-0.476
	c-0.699,0.027-1.397,0.055-2.125,0.069c-0.699,0.014-1.426,0.027-2.152,0.027c-0.714,0-1.426,0-2.154-0.014
	c-0.726-0.014-1.467-0.028-2.195-0.056h-0.236h-0.141l-0.097,0.015l-0.099,0.013l0.153,0.099c0.406,0.099,0.824,0.167,1.245,0.28
	c0.433,0.068,0.867,0.151,1.286,0.209c0.434,0.041,0.868,0.111,1.315,0.124c0.447,0.058,0.88,0.086,1.327,0.1
	c0.405,0.015,0.812,0.027,1.243,0.042c0.42,0.015,0.868,0.027,1.315,0.042c0.461,0.027,0.895,0.027,1.313,0.041
	c0.434,0,0.84,0.028,1.23,0.028c0.671,0.014,1.342,0.014,1.986,0.014c0.656,0,1.313-0.014,1.971-0.014
	c0.644-0.028,1.301-0.028,1.943-0.042"/>
<path fill="#27AAE1" d="M874.602,235.206l-0.503-0.015l-0.476,0.015l-0.405,0.057c-0.572,0.14-1.16,0.225-1.747,0.321
	c-0.602,0.111-1.202,0.194-1.832,0.265c-0.616,0.099-1.229,0.169-1.873,0.237c-0.645,0.085-1.3,0.141-1.972,0.226h-0.14
	l-0.111,0.028l-0.058,0.014l-0.069,0.042l0.069,0.04l0.042,0.015l0.099,0.027l0.168,0.029c0.643,0.112,1.327,0.208,1.999,0.294
	c0.657,0.069,1.328,0.138,2.027,0.194c0.279,0.016,0.56,0.042,0.866,0.058c2.208-0.518,4.418-1.076,6.585-1.638
	c-0.712-0.055-1.411-0.125-2.14-0.196L874.602,235.206z"/>
<path fill="#27AAE1" d="M884.305,232.423h-0.643l-0.531,0.027l-0.447,0.098l-0.379,0.086c-0.406,0.182-0.88,0.349-1.3,0.53
	c-0.461,0.169-0.95,0.321-1.426,0.476c-0.476,0.167-0.951,0.307-1.467,0.461c-0.491,0.126-1.022,0.28-1.524,0.418l-0.197,0.128
	l0.07,0.054l0.127,0.042l0.195,0.029l0.278,0.043c0.671,0.042,1.343,0.084,2.042,0.139c2.824-0.768,5.552-1.62,8.277-2.474
	c-0.028,0-0.028-0.015-0.057-0.015C886.317,232.451,885.311,232.451,884.305,232.423"/>
<path fill="#27AAE1" d="M894.258,228.202c-1.173,0.056-2.346,0.139-3.522,0.195c-0.238,0.014-0.476,0.029-0.67,0.057l-0.56,0.055
	l-0.419,0.112l-0.322,0.167c-0.266,0.238-0.572,0.476-0.854,0.714c-0.307,0.224-0.643,0.448-0.951,0.685
	c-0.336,0.224-0.685,0.435-1.062,0.658c-0.335,0.208-0.699,0.404-1.092,0.628l-0.055,0.015v0.041l-0.029,0.029l0.029,0.029
	l0.083,0.054l0.169,0.042l0.307,0.057l0.405,0.013c1.049,0.017,2.112,0.029,3.147,0.029c0.25,0,0.503-0.013,0.755-0.013
	c3.942-1.288,7.744-2.643,11.38-4.07c-1.077,0.099-2.169,0.195-3.271,0.28C896.579,228.061,895.42,228.145,894.258,228.202"/>
<path fill="#27AAE1" d="M910.393,222.245c0.197-0.376,0.421-0.797,0.615-1.202v-0.013V221v-0.013l-0.027-0.042l-0.099-0.14
	l-0.321-0.07h-0.434c-0.182,0.028-0.391,0.028-0.629,0.056c-1.26,0.238-2.518,0.475-3.831,0.672
	c-1.259,0.209-2.53,0.433-3.815,0.629c-1.288,0.18-2.56,0.362-3.847,0.531c-1.284,0.182-2.544,0.349-3.857,0.518
	c-0.279,0.013-0.518,0.055-0.714,0.111l-0.573,0.141l-0.363,0.166l-0.236,0.196c-0.1,0.309-0.239,0.601-0.349,0.894
	c-0.128,0.31-0.281,0.602-0.448,0.896c-0.169,0.28-0.338,0.56-0.532,0.839c-0.196,0.279-0.393,0.56-0.616,0.839v0.015v0.013v0.029
	v0.028l0.127,0.097l0.266,0.057l0.393,0.027h0.543c1.204-0.055,2.377-0.152,3.581-0.238c1.187-0.083,2.375-0.182,3.563-0.293
	c1.175-0.099,2.351-0.225,3.524-0.322c0.67-0.067,1.328-0.167,1.971-0.224c1.553-0.655,3.076-1.313,4.572-1.984
	c0.278-0.35,0.53-0.685,0.796-1.033C909.918,223.029,910.155,222.636,910.393,222.245"/>
<path fill="#27AAE1" d="M912.239,214.249c-0.029-0.488-0.099-0.993-0.198-1.511l-0.224-0.224l-0.405-0.111
	c-0.18,0-0.375,0-0.599,0.028c-0.224,0.013-0.49,0.055-0.785,0.125c-1.368,0.393-2.726,0.741-4.08,1.105
	c-1.371,0.349-2.742,0.712-4.097,1.048c-1.357,0.351-2.729,0.685-4.083,0.993c-1.342,0.32-2.7,0.614-4.068,0.937
	c-0.267,0.056-0.504,0.141-0.728,0.195l-0.505,0.238l-0.333,0.225l-0.085,0.249c0.111,0.38,0.266,0.741,0.321,1.119
	c0.097,0.364,0.183,0.699,0.211,1.076c0.055,0.364,0.084,0.7,0.084,1.035c0,0.336,0,0.671,0,0.994v0.025l-0.029,0.016v0.013
	l0.182,0.141l0.35,0.083h0.517c0.211,0,0.421-0.027,0.687-0.055c1.314-0.169,2.643-0.377,3.915-0.572
	c1.328-0.182,2.601-0.392,3.914-0.603c1.313-0.209,2.601-0.447,3.9-0.685c1.286-0.236,2.586-0.504,3.873-0.756
	c0.266-0.068,0.531-0.11,0.741-0.181l0.546-0.21l0.419-0.28l0.195-0.266c0.125-0.447,0.21-0.896,0.28-1.327
	c0.055-0.476,0.084-0.936,0.084-1.412C912.266,215.199,912.266,214.751,912.239,214.249"/>
<path fill-rule="evenodd" clip-rule="evenodd" fill="#1C75BC" d="M880.333,11.173c-15.756,10.067-5.34,20.902,6.627,29.375
	c12.234,8.654,24.468,12.819,38.142,19.643c7.563,3.776,18.341,9.633,25.389,14.064c61.097,38.364,33.484,83.495,33.484,83.495
	c-2.907,6.334-22.118,22.677-22.118,22.677c7.229-56.063-77.44-84.46-77.44-84.46c-7.844-3.173-15.154-6.809-23.838-11.491
	c-17.868-9.648-32.002-25.404-26.928-45.188c2.811-10.946,14.962-18.259,26.216-22.691
	C859.866,16.599,870.269,12.601,880.333,11.173"/>
<path fill="#FAB918" d="M842.95,87.874c-4.476-2.894-8.361-5.704-10.991-8.192c0,0-35.65-26.829,6.291-63.096
	c0,0-62.886,19.308-43.2,69.834c4.613,11.828,21.893,24.398,38.84,34.364c10.262,6.028,20.41,11.13,27.569,14.514
	c0.169-0.085,0.336-0.154,0.476-0.281c0.308-0.279,0.602-0.601,0.866-0.991c1.008-1.987,2.083-4,3.189-6.013
	c1.09-2.07,2.236-4.153,3.41-6.263c1.203-2.153,2.434-4.335,3.705-6.517c0.908-1.608,2.979-5.298,4.572-8.136
	C868.409,102.485,853.881,94.948,842.95,87.874"/>
<path fill="#FAB918" d="M952.504,180.47c0.028-0.224,0.042-0.434,0.083-0.629c-1.271,0.684-2.572,1.355-3.831,2.025
	c-1.565,0.825-3.131,1.623-4.669,2.421c-1.538,0.81-3.076,1.58-4.613,2.348c-0.252,0.155-0.504,0.322-0.687,0.475l-0.502,0.492
	l-0.293,0.474l-0.058,0.294c3.134,6.502,3.076,10.626,3.076,10.626l3.719-0.866c3.189-4.266,5.522-8.768,6.88-13.451
	c0-0.057,0.028-0.099,0.028-0.14C952.028,183.183,952.279,181.827,952.504,180.47"/>
<path fill="#FAB918" d="M936.215,184.049c0.21,0,0.463-0.016,0.77-0.083c0.279-0.084,0.602-0.198,0.924-0.323
	c1.537-0.837,3.103-1.677,4.641-2.53c1.594-0.839,3.175-1.705,4.754-2.571c1.58-0.883,3.188-1.776,4.782-2.671
	c0.236-0.167,0.53-0.308,0.796-0.462c0.028-6.612-1.776-13.128-5.327-19.46c-0.194,0.083-0.376,0.138-0.559,0.265
	c-1.719,1.215-3.396,2.432-5.118,3.607c-1.649,1.174-3.285,2.349-4.947,3.48c-1.622,1.146-3.272,2.265-4.865,3.384
	c-1.623,1.118-3.218,2.194-4.783,3.284c-0.224,0.169-0.405,0.351-0.572,0.532l-0.379,0.477l-0.209,0.488l-0.027,0.474v0.183
	l0.069,0.183c4.109,4.153,7.103,8.04,9.256,11.492l0.167,0.112C935.755,183.993,935.949,184.049,936.215,184.049"/>
<path fill="#FAB918" d="M921.927,167.425c0.293-0.026,0.616-0.083,0.937-0.208c0.309-0.113,0.645-0.28,1.006-0.518
	c1.566-1.146,3.16-2.307,4.755-3.482c1.623-1.188,3.243-2.39,4.879-3.594c1.651-1.229,3.313-2.474,4.992-3.719
	c1.677-1.257,3.382-2.516,5.104-3.815c0.208-0.183,0.405-0.378,0.544-0.56c0.099-0.112,0.195-0.239,0.252-0.377
	c-2.153-3.062-4.726-6.068-7.634-9.018c-3.131-3.076-6.879-6.223-11.212-9.396c-0.28,0.055-0.574,0.112-0.839,0.252
	c-0.393,0.182-0.783,0.432-1.174,0.767c-1.68,1.665-3.345,3.287-4.993,4.923c-1.607,1.607-3.229,3.201-4.795,4.78
	c-1.565,1.553-3.104,3.09-4.641,4.614c-1.498,1.511-2.992,2.991-4.447,4.46c-0.166,0.196-0.307,0.378-0.419,0.56
	c-0.099,0.196-0.182,0.349-0.252,0.53l-0.111,0.49l0.027,0.476l0.125,0.309l0.154,0.308l0.252,0.294l0.308,0.307
	c0.645,0.393,1.259,0.783,1.888,1.201c0.77,0.491,1.552,0.966,2.293,1.454c0.027,0.042,0.098,0.057,0.142,0.112
	c0.067,0.044,0.125,0.085,0.18,0.127c4.306,2.824,8.038,5.661,11.269,8.416c0.196,0.099,0.363,0.182,0.56,0.236
	C921.341,167.425,921.633,167.44,921.927,167.425"/>
<path fill="#FAB918" d="M884.136,145.001c1.903,0.822,3.747,1.69,5.537,2.557c1.791,0.866,3.552,1.748,5.256,2.656
	c0.364,0.155,0.757,0.238,1.12,0.28c0.362,0.042,0.727,0.015,1.063-0.042c0.363-0.083,0.699-0.194,1.021-0.39
	c0.349-0.183,0.672-0.435,0.991-0.743c1.428-1.538,2.882-3.117,4.336-4.711c1.495-1.594,2.99-3.216,4.53-4.879
	c1.509-1.651,3.074-3.341,4.669-5.02c1.622-1.734,3.242-3.467,4.865-5.229c0.195-0.195,0.322-0.419,0.447-0.601
	c0.125-0.224,0.195-0.406,0.279-0.602c0.057-0.153,0.085-0.307,0.111-0.447c-8.556-5.451-19.042-10.918-31.974-16.33
	c-0.211,0.182-0.435,0.335-0.614,0.574c-1.414,2.167-2.783,4.318-4.111,6.458c-1.329,2.112-2.601,4.195-3.845,6.236
	c-1.258,2.026-2.462,4.054-3.636,6.011c-1.175,1.945-2.293,3.888-3.397,5.789c-0.084,0.195-0.152,0.377-0.209,0.587
	c-0.058,0.182-0.084,0.364-0.112,0.531v0.489l0.112,0.462l0.236,0.432l0.351,0.406l0.448,0.364c2.25,0.88,4.416,1.748,6.543,2.627
	c0.026,0.029,0.084,0.042,0.141,0.07C880.278,143.322,882.234,144.133,884.136,145.001"/>
<path fill="#1C75BC" d="M125.486,134.948c-4.117-2.921-9.115-5.396-14.988-7.451c-5.865-2.055-12.423-3.901-19.657-5.592
	c-5.781-1.483-9.934-2.573-12.45-3.342c-2.496-0.77-4.985-1.818-7.445-3.16c-2.454-1.329-4.369-2.936-5.789-4.809
	c-1.384-1.875-2.089-4.098-2.089-6.668c0-4.125,2.047-7.69,6.172-10.626c4.125-2.965,9.534-4.432,16.26-4.432
	c7.235,0,12.499,1.355,15.763,4.068c3.265,2.712,6.075,6.502,8.403,11.339c1.825,3.396,3.495,5.831,5.04,7.339
	c1.552,1.482,3.81,2.21,6.801,2.21c3.25,0,5.998-1.246,8.179-3.719c2.203-2.476,3.28-5.272,3.28-8.361
	c0-3.37-0.861-6.851-2.622-10.416c-1.748-3.565-4.523-6.978-8.319-10.206c-3.795-3.258-8.563-5.859-14.317-7.789
	c-5.766-1.971-12.567-2.936-20.46-2.936c-9.878,0-18.455,1.456-25.753,4.418c-7.319,2.937-12.884,7.16-16.736,12.653
	c-3.852,5.482-5.773,11.758-5.773,18.848c0,7.409,1.803,13.602,5.459,18.593c3.649,4.993,8.592,8.949,14.813,11.843
	c6.229,2.893,13.945,5.41,23.18,7.578c6.885,1.566,12.387,3.075,16.505,4.445c4.125,1.413,7.479,3.467,10.065,6.097
	c2.608,2.671,3.909,6.138,3.909,10.4c0,5.368-2.419,9.844-7.243,13.436c-4.793,3.609-11.079,5.398-18.783,5.398
	c-5.599,0-10.122-0.895-13.582-2.67c-3.439-1.792-6.117-4.055-8.018-6.81c-1.881-2.728-3.655-6.151-5.286-10.249
	c-1.334-3.453-2.978-6.026-4.864-7.786c-1.908-1.764-4.215-2.63-6.977-2.63c-3.376,0-6.187,1.134-8.361,3.37
	c-2.188,2.266-3.277,4.964-3.277,8.097c0,5.438,1.817,11.03,5.452,16.791c3.67,5.758,8.41,10.345,14.261,13.798
	c8.235,4.781,18.685,7.199,31.353,7.199c10.583,0,19.719-1.774,27.43-5.298c7.719-3.481,13.561-8.332,17.567-14.512
	c3.998-6.194,5.998-13.185,5.998-20.944c0-6.501-1.16-11.968-3.46-16.441C132.82,141.574,129.611,137.871,125.486,134.948"/>
<path fill="#1C75BC" d="M235.657,119.442c-4.208-4.333-9.261-7.646-15.157-9.981c-5.914-2.335-12.469-3.509-19.711-3.509
	c-7.118,0-13.646,1.16-19.545,3.467c-5.9,2.293-10.928,5.565-15.065,9.857c-4.146,4.25-7.327,9.381-9.55,15.407
	c-2.216,6.013-3.321,12.64-3.321,19.88c0,7.188,1.092,13.759,3.28,19.672c2.195,5.93,5.396,11.074,9.641,15.422
	c4.221,4.362,9.234,7.689,15.016,10.052c5.779,2.334,12.294,3.509,19.545,3.509c7.298,0,13.87-1.175,19.711-3.479
	c5.838-2.309,10.865-5.606,15.073-9.955c4.193-4.307,7.402-9.48,9.633-15.506c2.208-6.011,3.313-12.582,3.313-19.714
	c0-7.17-1.092-13.742-3.279-19.698C243.046,128.893,239.873,123.777,235.657,119.442 M218.096,177.212
	c-4.299,5.466-10.065,8.208-17.308,8.208c-4.79,0-8.949-1.26-12.486-3.719c-3.537-2.49-6.242-6.068-8.164-10.738
	c-1.888-4.669-2.832-10.136-2.832-16.401c0-6.289,0.958-11.799,2.887-16.538c1.922-4.753,4.67-8.304,8.234-10.738
	c3.565-2.418,7.69-3.634,12.361-3.634c7.243,0,13.009,2.713,17.308,8.151c4.278,5.423,6.424,13.001,6.424,22.759
	C224.521,164.211,222.375,171.76,218.096,177.212"/>
<path fill="#1C75BC" d="M279.193,70.397c-3.613,0-6.501,1.217-8.632,3.651c-2.12,2.46-3.196,6.08-3.196,10.876v103.738
	c0,4.684,1.092,8.263,3.292,10.78c2.189,2.489,5.04,3.761,8.536,3.761c3.565,0,6.465-1.229,8.717-3.648
	c2.258-2.419,3.363-6.04,3.363-10.893V84.925c0-4.853-1.105-8.486-3.308-10.905C285.737,71.601,282.813,70.397,279.193,70.397"/>
<path fill="#1C75BC" d="M388.705,105.952c-3.563,0-6.458,1.188-8.681,3.579c-2.216,2.405-3.321,5.969-3.321,10.71v29.08
	c0,11.45-0.671,18.859-2.013,22.246c-1.649,3.857-4.242,6.988-7.808,9.378c-3.565,2.406-7.354,3.609-11.38,3.609
	c-4.153,0-7.43-1.092-9.849-3.217c-2.432-2.125-4.111-5.074-5.041-8.862c-0.931-3.748-1.412-8.403-1.412-13.954v-38.28
	c0-4.741-1.105-8.305-3.327-10.71c-2.218-2.39-5.139-3.579-8.761-3.579c-3.55,0-6.422,1.188-8.591,3.55
	c-2.161,2.377-3.235,5.956-3.235,10.738v47.367c0,9.535,1.488,16.833,4.466,21.922c2.51,4.211,6.06,7.523,10.639,9.914
	c4.593,2.39,9.781,3.592,15.563,3.592c4.781,0,9.051-0.614,12.799-1.815c3.727-1.176,7.172-3.021,10.338-5.481
	c3.132-2.433,6.153-5.48,9.004-9.075v3.035c0,4.25,1.077,7.592,3.196,9.969c2.146,2.333,4.837,3.55,8.102,3.55
	c3.279,0,5.956-1.146,8.031-3.438c2.076-2.266,3.105-5.678,3.105-10.25V120.24c0-4.783-1.084-8.361-3.237-10.738
	C395.116,107.14,392.286,105.952,388.705,105.952"/>
<path fill="#1C75BC" d="M471.578,183.211c-1.334,0-3.207,0.25-5.613,0.755c-2.39,0.503-4.286,0.74-5.696,0.74
	c-2.566,0-4.413-0.615-5.558-1.874c-1.133-1.259-1.846-2.893-2.104-4.921c-0.246-2-0.385-4.895-0.385-8.627v-43.97h4.466
	c4.741,0,8.361-0.642,10.905-1.93c2.539-1.285,3.81-3.537,3.81-6.736c0-2.518-0.887-4.572-2.663-6.195
	c-1.789-1.594-4.369-2.405-7.758-2.405h-8.759V91.76c0-4.04-0.218-7.143-0.658-9.325c-0.448-2.195-1.475-4.042-3.11-5.579
	c-2.46-2.278-5.207-3.412-8.236-3.412c-2.159,0-4.117,0.518-5.878,1.539c-1.748,1.035-3.097,2.349-4.026,3.969
	c-0.931,1.581-1.504,3.482-1.699,5.664c-0.218,2.208-0.302,5.215-0.302,9.072v14.359h-2.634c-3.621,0-6.377,0.811-8.291,2.405
	c-1.888,1.623-2.838,3.677-2.838,6.195c0,2.515,0.9,4.557,2.705,6.206c1.824,1.635,4.452,2.46,7.893,2.46h3.165v45.901
	c0,7.438,0.601,13.364,1.79,17.783c1.189,4.46,3.735,7.927,7.571,10.444c3.852,2.502,9.508,3.773,16.995,3.773
	c7.883,0,13.932-1.034,18.14-3.089c4.193-2.042,6.297-4.991,6.297-8.851c0-2.278-0.775-4.167-2.307-5.732
	C475.242,184.007,473.508,183.211,471.578,183.211"/>
<path fill="#1C75BC" d="M569.173,157.779c3.44-1.776,5.173-5.689,5.173-11.701c0-6.489-1.648-12.863-5.004-19.099
	c-3.329-6.236-8.333-11.353-15.017-15.295c-6.711-3.93-14.694-5.914-24.055-5.914c-7.186,0-13.716,1.146-19.63,3.467
	c-5.885,2.307-10.848,5.62-14.876,9.94c-4.034,4.335-7.101,9.508-9.205,15.547c-2.104,6.054-3.146,12.598-3.146,19.685
	c0,15.004,4.25,26.887,12.785,35.653c8.515,8.752,20.468,13.154,35.833,13.154c6.712,0,12.647-0.879,17.847-2.643
	c5.146-1.76,9.438-3.942,12.849-6.626c3.427-2.643,5.998-5.425,7.676-8.318c1.677-2.895,2.543-5.411,2.543-7.578
	c0-2.434-0.754-4.362-2.277-5.689c-1.524-1.343-3.509-2.014-5.956-2.014c-2.278,0-4.041,0.518-5.27,1.566
	c-2.965,2.809-5.398,5.032-7.271,6.64c-1.859,1.664-3.914,3.201-6.123,4.614c-2.223,1.44-4.496,2.488-6.872,3.159
	c-2.377,0.687-4.997,1.021-7.851,1.021c-4.265,0-8.158-1.063-11.695-3.159c-3.536-2.112-6.368-5.243-8.501-9.368
	c-2.117-4.152-3.222-8.947-3.277-14.387h46.78C560.869,160.435,565.719,159.569,569.173,157.779 M507.853,146.859
	c0.811-8.052,3.144-14.148,6.955-18.257c3.825-4.112,8.717-6.179,14.673-6.179c6.257,0,11.298,2.026,15.113,6.096
	c3.83,4.04,6.041,10.177,6.627,18.341H507.853z"/>
<path fill="#1C75BC" d="M670.115,163.147c-2.46,0-4.544,0.783-6.236,2.281c-1.704,1.536-3.271,3.634-4.724,6.332
	c-2.642,4.529-5.664,7.928-9.089,10.136c-3.41,2.21-7.493,3.342-12.304,3.342c-3.579,0-6.821-0.699-9.8-2.069
	c-2.991-1.342-5.508-3.369-7.62-6.04c-2.097-2.655-3.719-5.858-4.822-9.619c-1.105-3.788-1.693-7.912-1.693-12.4
	c0-9.577,2.183-17.127,6.516-22.663c4.307-5.509,10.012-8.276,17.071-8.276c4.907,0,8.949,1.119,12.15,3.34
	c3.16,2.223,6.206,5.55,9.144,9.984c1.621,2.265,3.117,3.927,4.417,4.962c1.328,1.006,2.978,1.511,4.978,1.511
	c3.02,0,5.606-1.009,7.744-2.965c2.112-2,3.189-4.418,3.189-7.285c0-2.796-0.965-5.815-2.841-9.059
	c-1.914-3.259-4.654-6.306-8.246-9.172c-3.595-2.838-7.984-5.173-13.142-6.991c-5.159-1.831-10.836-2.713-17.045-2.713
	c-9.981,0-18.565,2.057-25.753,6.153c-7.187,4.125-12.666,9.969-16.469,17.504c-3.802,7.521-5.689,16.189-5.689,26.004
	c0,14.499,4.138,26.033,12.441,34.673c8.291,8.598,19.813,12.905,34.604,12.905c6.936,0,13.198-0.923,18.735-2.812
	c5.563-1.857,10.15-4.32,13.813-7.396c3.636-3.061,6.377-6.276,8.138-9.688c1.775-3.383,2.684-6.556,2.684-9.534
	c0-2.501-0.979-4.878-2.894-7.115C675.457,164.266,673.022,163.147,670.115,163.147"/>
<path fill="#1C75BC" d="M780.48,130.614c-0.586-3.552-1.732-6.726-3.41-9.591c-2.684-4.908-6.39-8.655-11.086-11.214
	c-4.713-2.57-10.096-3.857-16.161-3.857c-4.042,0-7.818,0.502-11.298,1.537c-3.511,1.022-6.727,2.546-9.592,4.601
	c-2.907,2.042-5.857,4.809-8.905,8.32V84.925c0-4.796-1.063-8.417-3.188-10.876c-2.138-2.434-5.117-3.651-8.892-3.651
	c-3.748,0-6.655,1.204-8.726,3.622c-2.068,2.419-3.116,6.053-3.116,10.905v103.738c0,9.69,3.957,14.554,11.842,14.554
	c3.774,0,6.754-1.271,8.892-3.745c2.125-2.476,3.188-6.096,3.188-10.809v-31.625c0-9.115,0.656-15.463,1.942-19.026
	c1.678-4.195,4.222-7.522,7.649-9.927c3.41-2.419,7.256-3.636,11.548-3.636c6.346,0,10.667,2.041,12.946,6.166
	c2.277,4.125,3.411,10.01,3.411,17.644v40.405c0,9.69,3.943,14.554,11.826,14.554c3.637,0,6.516-1.229,8.711-3.703
	c2.21-2.447,3.287-6.055,3.287-10.851v-45.814C781.35,138.234,781.068,134.151,780.48,130.614"/>
<g>
	<path d="M73.123,259.122H58.998v40.021h-5.946v-40.021H38.956v-4.768h34.167V259.122z"/>
	<path d="M89.05,299.79c-4.547,0-8.164-1.543-10.851-4.63s-4.029-7.091-4.029-12.013v-1.354c0-4.737,1.383-8.68,4.15-11.828
		c2.767-3.147,6.042-4.722,9.825-4.722c4.407,0,7.737,1.354,9.991,4.061c2.253,2.707,3.38,6.316,3.38,10.828v3.784H80.328
		l-0.091,0.153c0.061,3.19,0.855,5.813,2.385,7.868c1.529,2.056,3.672,3.083,6.429,3.083c2.012,0,3.778-0.292,5.297-0.877
		c1.519-0.584,2.832-1.389,3.939-2.415l2.324,3.942c-1.167,1.177-2.707,2.156-4.618,2.941
		C94.081,299.397,91.767,299.79,89.05,299.79z M88.145,270.012c-1.992,0-3.693,0.854-5.101,2.56
		c-1.409,1.707-2.274,3.848-2.596,6.423l0.061,0.153H95.57v-0.797c0-2.371-0.624-4.354-1.871-5.948
		C92.451,270.809,90.6,270.012,88.145,270.012z"/>
	<path d="M121.467,295.021c1.972,0,3.708-0.62,5.207-1.861c1.499-1.24,2.249-2.763,2.249-4.567h5.343l0.06,0.184
		c0.101,2.872-1.152,5.425-3.758,7.66s-5.639,3.354-9.1,3.354c-4.749,0-8.381-1.579-10.896-4.738
		c-2.516-3.157-3.773-7.126-3.773-11.904v-1.292c0-4.737,1.263-8.69,3.788-11.858c2.525-3.169,6.152-4.753,10.881-4.753
		c3.823,0,6.947,1.148,9.372,3.445c2.424,2.297,3.596,5.117,3.516,8.46l-0.061,0.184h-5.373c0-2.029-0.705-3.757-2.113-5.183
		c-1.409-1.426-3.189-2.138-5.342-2.138c-3.119,0-5.348,1.142-6.686,3.425c-1.338,2.284-2.007,5.085-2.007,8.403v1.29
		c0,3.4,0.664,6.232,1.992,8.496C116.095,293.889,118.328,295.021,121.467,295.021z"/>
	<path d="M146.942,270.319c1.127-1.6,2.51-2.845,4.15-3.737c1.64-0.892,3.456-1.338,5.448-1.338c3.481,0,6.192,1.066,8.134,3.199
		s2.913,5.414,2.913,9.844v20.856h-5.946v-20.918c0-2.748-0.579-4.778-1.735-6.091c-1.158-1.313-2.883-1.969-5.177-1.969
		c-1.65,0-3.144,0.396-4.482,1.185c-1.338,0.789-2.44,1.861-3.305,3.215v24.578h-5.946v-47.988h5.946V270.319z"/>
	<path d="M181.441,265.859l0.422,4.952c1.087-1.763,2.45-3.132,4.09-4.106c1.64-0.974,3.506-1.461,5.599-1.461
		c3.521,0,6.248,1.051,8.18,3.153s2.897,5.348,2.897,9.736v21.01h-5.946v-20.887c0-2.933-0.569-5.015-1.706-6.245
		c-1.137-1.23-2.873-1.846-5.207-1.846c-1.71,0-3.225,0.421-4.542,1.261c-1.318,0.842-2.37,1.99-3.154,3.445v24.271h-5.946v-33.284
		H181.441z"/>
	<path d="M209.874,282.194c0-4.922,1.308-8.978,3.924-12.167c2.616-3.188,6.167-4.783,10.655-4.783c4.527,0,8.104,1.59,10.73,4.769
		s3.939,7.239,3.939,12.182v0.676c0,4.964-1.309,9.024-3.924,12.182c-2.616,3.159-6.178,4.738-10.685,4.738s-8.074-1.585-10.7-4.753
		c-2.626-3.169-3.939-7.224-3.939-12.167V282.194z M215.82,282.854c0,3.523,0.729,6.433,2.188,8.726
		c1.459,2.295,3.627,3.441,6.504,3.441c2.837,0,4.99-1.146,6.459-3.441c1.468-2.293,2.203-5.202,2.203-8.726v-0.676
		c0-3.481-0.739-6.38-2.218-8.694s-3.647-3.472-6.504-3.472c-2.837,0-4.985,1.157-6.444,3.472s-2.188,5.213-2.188,8.694V282.854z"/>
	<path d="M252.825,299.143h-5.946v-47.988h5.946V299.143z"/>
	<path d="M260.582,282.194c0-4.922,1.308-8.978,3.924-12.167c2.616-3.188,6.167-4.783,10.655-4.783c4.527,0,8.104,1.59,10.73,4.769
		s3.939,7.239,3.939,12.182v0.676c0,4.964-1.309,9.024-3.924,12.182c-2.616,3.159-6.178,4.738-10.685,4.738s-8.074-1.585-10.7-4.753
		c-2.626-3.169-3.939-7.224-3.939-12.167V282.194z M266.528,282.854c0,3.523,0.729,6.433,2.188,8.726
		c1.459,2.295,3.627,3.441,6.504,3.441c2.837,0,4.99-1.146,6.459-3.441c1.468-2.293,2.203-5.202,2.203-8.726v-0.676
		c0-3.481-0.739-6.38-2.218-8.694s-3.647-3.472-6.504-3.472c-2.837,0-4.985,1.157-6.444,3.472s-2.188,5.213-2.188,8.694V282.854z"/>
	<path d="M295.805,283.116c0-5.352,1.147-9.669,3.441-12.95s5.463-4.922,9.508-4.922c2.072,0,3.894,0.426,5.463,1.276
		c1.569,0.852,2.877,2.076,3.924,3.676l0.724-4.337h4.739v33.469c0,4.266-1.218,7.541-3.652,9.828s-5.946,3.431-10.534,3.431
		c-1.569,0-3.265-0.221-5.086-0.662c-1.821-0.441-3.426-1.041-4.814-1.799l1.509-4.707c1.066,0.615,2.354,1.112,3.864,1.492
		c1.509,0.379,2.998,0.568,4.467,0.568c2.898,0,5.005-0.672,6.324-2.015c1.317-1.343,1.977-3.389,1.977-6.137v-3.753
		c-1.067,1.395-2.345,2.445-3.833,3.153c-1.489,0.707-3.199,1.062-5.131,1.062c-4.004,0-7.153-1.477-9.447-4.43
		s-3.441-6.819-3.441-11.598V283.116z M301.751,283.762c0,3.343,0.694,6.029,2.083,8.06c1.389,2.03,3.501,3.046,6.338,3.046
		c1.791,0,3.29-0.416,4.498-1.246c1.207-0.831,2.203-2.005,2.988-3.522V274.78c-0.765-1.415-1.761-2.538-2.988-3.368
		c-1.228-0.831-2.707-1.246-4.437-1.246c-2.837,0-4.96,1.21-6.369,3.63c-1.409,2.42-2.113,5.527-2.113,9.32V283.762z"/>
	<path d="M342.227,286.807l1.057,4.184h0.181l8.028-25.132h6.61L344.37,304.25c-0.825,2.235-2.007,4.184-3.546,5.845
		c-1.54,1.661-3.617,2.492-6.233,2.492c-0.483,0-1.097-0.058-1.841-0.17s-1.318-0.221-1.72-0.322l0.604-4.769
		c-0.121-0.021,0.236,0,1.072,0.062c0.834,0.062,1.363,0.092,1.584,0.092c1.268,0,2.304-0.574,3.109-1.723
		c0.805-1.148,1.479-2.42,2.022-3.814l1.418-3.476l-12.134-32.607h6.64L342.227,286.807z"/>
	<path d="M405.883,278.379h-20.132v15.996h23.211v4.768h-29.157v-44.789h28.825v4.768h-22.879v14.489h20.132V278.379z"/>
	<path d="M420.13,265.859l0.422,4.368c1.066-1.579,2.419-2.804,4.06-3.676s3.547-1.308,5.72-1.308c2.173,0,4.04,0.513,5.599,1.538
		c1.559,1.025,2.731,2.563,3.517,4.614c1.026-1.887,2.384-3.384,4.075-4.491c1.69-1.107,3.662-1.661,5.916-1.661
		c3.32,0,5.946,1.164,7.878,3.491c1.932,2.328,2.897,5.83,2.897,10.506v19.902h-5.946v-19.965c0-3.28-0.554-5.603-1.66-6.967
		c-1.107-1.364-2.757-2.046-4.95-2.046c-2.033,0-3.678,0.718-4.935,2.153s-1.997,3.251-2.218,5.445v0.246v21.133h-5.976v-19.965
		c0-3.116-0.569-5.398-1.706-6.844c-1.137-1.446-2.772-2.169-4.905-2.169c-1.811,0-3.3,0.38-4.467,1.138
		c-1.167,0.76-2.063,1.826-2.687,3.199v24.641h-5.946v-33.284H420.13z"/>
	<path d="M496.674,283.762c0,4.799-1.127,8.67-3.38,11.612c-2.254,2.943-5.363,4.415-9.327,4.415c-2.012,0-3.778-0.344-5.297-1.031
		c-1.52-0.687-2.812-1.717-3.878-3.092v16.273h-5.946v-46.081h4.558l0.936,4.307c1.066-1.6,2.395-2.819,3.984-3.661
		c1.589-0.84,3.441-1.261,5.554-1.261c4.045,0,7.188,1.636,9.433,4.906c2.243,3.271,3.365,7.594,3.365,12.966V283.762z
		 M490.728,283.1c0-3.769-0.729-6.866-2.188-9.294c-1.459-2.427-3.607-3.641-6.444-3.641c-1.71,0-3.169,0.395-4.376,1.183
		c-1.207,0.789-2.184,1.869-2.928,3.242v16.067c0.744,1.373,1.721,2.443,2.928,3.211c1.208,0.769,2.687,1.152,4.437,1.152
		c2.817,0,4.95-1.05,6.399-3.149s2.173-4.808,2.173-8.126V283.1z"/>
	<path d="M502.59,282.194c0-4.922,1.308-8.978,3.924-12.167c2.616-3.188,6.167-4.783,10.654-4.783c4.527,0,8.105,1.59,10.73,4.769
		c2.627,3.179,3.939,7.239,3.939,12.182v0.676c0,4.964-1.309,9.024-3.924,12.182c-2.615,3.159-6.178,4.738-10.686,4.738
		c-4.507,0-8.073-1.585-10.699-4.753c-2.626-3.169-3.939-7.224-3.939-12.167V282.194z M508.537,282.854
		c0,3.523,0.729,6.433,2.188,8.726c1.459,2.295,3.627,3.441,6.504,3.441c2.838,0,4.99-1.146,6.459-3.441
		c1.469-2.293,2.205-5.202,2.205-8.726v-0.676c0-3.481-0.74-6.38-2.219-8.694c-1.48-2.314-3.648-3.472-6.506-3.472
		c-2.836,0-4.984,1.157-6.443,3.472s-2.188,5.213-2.188,8.694V282.854z"/>
	<path d="M547.473,287.023l0.694,4.03h0.181l0.846-4.03l6.52-21.164h4.769l6.55,21.164l0.936,4.491h0.182l0.875-4.491l5.131-21.164
		h5.916l-9.478,33.284h-4.799l-6.309-20.271l-1.358-5.66l-0.181,0.03l-1.298,5.63l-6.218,20.271h-4.799l-9.478-33.284h5.916
		L547.473,287.023z"/>
	<path d="M599.448,299.79c-4.548,0-8.164-1.543-10.851-4.63s-4.029-7.091-4.029-12.013v-1.354c0-4.737,1.383-8.68,4.15-11.828
		c2.766-3.147,6.041-4.722,9.824-4.722c4.406,0,7.736,1.354,9.99,4.061s3.381,6.316,3.381,10.828v3.784h-21.188l-0.091,0.153
		c0.061,3.19,0.855,5.813,2.385,7.868c1.529,2.056,3.672,3.083,6.429,3.083c2.012,0,3.777-0.292,5.297-0.877
		c1.52-0.584,2.832-1.389,3.939-2.415l2.324,3.942c-1.167,1.177-2.707,2.156-4.618,2.941
		C604.479,299.397,602.165,299.79,599.448,299.79z M598.543,270.012c-1.992,0-3.692,0.854-5.101,2.56
		c-1.409,1.707-2.274,3.848-2.596,6.423l0.06,0.153h15.062v-0.797c0-2.371-0.624-4.354-1.871-5.948
		C602.849,270.809,600.998,270.012,598.543,270.012z"/>
	<path d="M634.038,271.211l-3.048-0.185c-1.569,0-2.894,0.38-3.97,1.138c-1.076,0.76-1.906,1.826-2.489,3.199v23.779h-5.946v-33.284
		h5.312l0.574,4.86c0.925-1.723,2.067-3.065,3.426-4.029s2.922-1.446,4.693-1.446c0.442,0,0.865,0.036,1.268,0.107
		c0.402,0.072,0.734,0.149,0.996,0.231L634.038,271.211z"/>
	<path d="M646.202,257.338h-5.946v-6.184h5.946V257.338z M646.202,299.143h-5.946v-33.284h5.946V299.143z"/>
	<path d="M660.659,265.859l0.423,4.952c1.087-1.763,2.45-3.132,4.09-4.106c1.64-0.974,3.506-1.461,5.599-1.461
		c3.521,0,6.248,1.051,8.18,3.153c1.933,2.103,2.898,5.348,2.898,9.736v21.01h-5.946v-20.887c0-2.933-0.569-5.015-1.706-6.245
		s-2.872-1.846-5.206-1.846c-1.711,0-3.225,0.421-4.543,1.261c-1.317,0.842-2.369,1.99-3.153,3.445v24.271h-5.946v-33.284H660.659z"
		/>
	<path d="M689.183,283.116c0-5.352,1.146-9.669,3.44-12.95s5.463-4.922,9.508-4.922c2.072,0,3.894,0.426,5.463,1.276
		c1.57,0.852,2.878,2.076,3.924,3.676l0.725-4.337h4.739v33.469c0,4.266-1.218,7.541-3.652,9.828
		c-2.436,2.287-5.946,3.431-10.534,3.431c-1.569,0-3.265-0.221-5.086-0.662s-3.426-1.041-4.814-1.799l1.51-4.707
		c1.066,0.615,2.354,1.112,3.863,1.492c1.509,0.379,2.998,0.568,4.467,0.568c2.897,0,5.006-0.672,6.323-2.015
		c1.318-1.343,1.978-3.389,1.978-6.137v-3.753c-1.067,1.395-2.345,2.445-3.833,3.153c-1.49,0.707-3.2,1.062-5.132,1.062
		c-4.004,0-7.153-1.477-9.447-4.43s-3.44-6.819-3.44-11.598V283.116z M695.129,283.762c0,3.343,0.693,6.029,2.082,8.06
		s3.501,3.046,6.339,3.046c1.79,0,3.29-0.416,4.497-1.246c1.207-0.831,2.203-2.005,2.988-3.522V274.78
		c-0.766-1.415-1.761-2.538-2.988-3.368c-1.228-0.831-2.707-1.246-4.437-1.246c-2.838,0-4.961,1.21-6.369,3.63
		s-2.112,5.527-2.112,9.32V283.762z"/>
	<path d="M742.093,299.143v-44.789h14.337c4.588,0,8.18,1.011,10.775,3.03s3.894,5.05,3.894,9.09c0,1.989-0.623,3.769-1.871,5.337
		c-1.248,1.569-2.888,2.733-4.92,3.492c2.656,0.574,4.744,1.896,6.264,3.968c1.519,2.071,2.278,4.481,2.278,7.229
		c0,4.102-1.303,7.233-3.908,9.397c-2.606,2.164-6.143,3.245-10.609,3.245H742.093z M748.039,273.395h9.629
		c2.213,0,4.014-0.619,5.402-1.86s2.083-2.969,2.083-5.184c0-2.42-0.75-4.229-2.249-5.43c-1.499-1.199-3.657-1.8-6.475-1.8h-8.391
		V273.395z M748.039,278.164v16.212h10.293c2.695,0,4.799-0.68,6.308-2.038c1.51-1.358,2.264-3.284,2.264-5.776
		c0-2.615-0.629-4.669-1.886-6.16c-1.258-1.491-3.195-2.237-5.811-2.237H748.039z"/>
	<path d="M801.222,294.221c-1.026,1.784-2.344,3.158-3.954,4.122c-1.609,0.964-3.471,1.446-5.584,1.446
		c-3.562,0-6.338-1.159-8.33-3.477s-2.988-5.927-2.988-10.828v-19.626h5.946v19.688c0,3.548,0.513,5.988,1.539,7.321
		s2.626,2,4.799,2c2.113,0,3.858-0.436,5.237-1.308c1.378-0.872,2.419-2.107,3.124-3.707v-23.994h5.946v33.284h-5.343
		L801.222,294.221z"/>
	<path d="M834.604,290.284c0-1.333-0.498-2.43-1.494-3.291s-2.883-1.61-5.659-2.246c-3.965-0.881-6.948-2.073-8.95-3.578
		s-3.003-3.558-3.003-6.158c0-2.702,1.127-5.006,3.381-6.91c2.253-1.904,5.191-2.856,8.813-2.856c3.803,0,6.826,0.995,9.069,2.983
		c2.244,1.99,3.315,4.41,3.215,7.26l-0.061,0.186h-5.674c0-1.456-0.6-2.764-1.796-3.923c-1.197-1.158-2.782-1.737-4.754-1.737
		c-2.113,0-3.683,0.472-4.709,1.414c-1.026,0.944-1.539,2.082-1.539,3.415c0,1.313,0.453,2.349,1.358,3.106
		c0.905,0.76,2.746,1.437,5.523,2.031c4.125,0.902,7.193,2.127,9.206,3.676c2.012,1.549,3.018,3.625,3.018,6.229
		c0,2.953-1.172,5.343-3.516,7.168c-2.345,1.825-5.408,2.738-9.191,2.738c-4.165,0-7.445-1.077-9.84-3.23s-3.531-4.665-3.41-7.537
		l0.061-0.184h5.674c0.101,2.143,0.886,3.709,2.354,4.698c1.469,0.99,3.189,1.484,5.161,1.484c2.113,0,3.768-0.436,4.966-1.308
		C834.005,292.842,834.604,291.699,834.604,290.284z"/>
	<path d="M854.374,257.338h-5.946v-6.184h5.946V257.338z M854.374,299.143h-5.946v-33.284h5.946V299.143z"/>
	<path d="M868.831,265.859l0.423,4.952c1.087-1.763,2.45-3.132,4.09-4.106c1.64-0.974,3.506-1.461,5.599-1.461
		c3.521,0,6.248,1.051,8.18,3.153c1.933,2.103,2.898,5.348,2.898,9.736v21.01h-5.946v-20.887c0-2.933-0.569-5.015-1.706-6.245
		s-2.872-1.846-5.206-1.846c-1.711,0-3.225,0.421-4.543,1.261c-1.317,0.842-2.369,1.99-3.153,3.445v24.271h-5.946v-33.284H868.831z"
		/>
	<path d="M912.204,299.79c-4.548,0-8.164-1.543-10.851-4.63s-4.029-7.091-4.029-12.013v-1.354c0-4.737,1.383-8.68,4.15-11.828
		c2.766-3.147,6.041-4.722,9.824-4.722c4.406,0,7.736,1.354,9.99,4.061s3.381,6.316,3.381,10.828v3.784h-21.188l-0.091,0.153
		c0.061,3.19,0.855,5.813,2.385,7.868c1.529,2.056,3.672,3.083,6.429,3.083c2.012,0,3.777-0.292,5.297-0.877
		c1.52-0.584,2.832-1.389,3.939-2.415l2.324,3.942c-1.167,1.177-2.707,2.156-4.618,2.941
		C917.234,299.397,914.921,299.79,912.204,299.79z M911.299,270.012c-1.992,0-3.692,0.854-5.101,2.56
		c-1.409,1.707-2.274,3.848-2.596,6.423l0.06,0.153h15.062v-0.797c0-2.371-0.624-4.354-1.871-5.948
		C915.604,270.809,913.754,270.012,911.299,270.012z"/>
	<path d="M950.326,290.284c0-1.333-0.498-2.43-1.494-3.291s-2.883-1.61-5.659-2.246c-3.965-0.881-6.948-2.073-8.95-3.578
		s-3.003-3.558-3.003-6.158c0-2.702,1.127-5.006,3.381-6.91c2.253-1.904,5.191-2.856,8.813-2.856c3.803,0,6.826,0.995,9.069,2.983
		c2.244,1.99,3.315,4.41,3.215,7.26l-0.061,0.186h-5.674c0-1.456-0.6-2.764-1.796-3.923c-1.197-1.158-2.782-1.737-4.754-1.737
		c-2.113,0-3.683,0.472-4.709,1.414c-1.026,0.944-1.539,2.082-1.539,3.415c0,1.313,0.453,2.349,1.358,3.106
		c0.905,0.76,2.746,1.437,5.523,2.031c4.125,0.902,7.193,2.127,9.206,3.676c2.012,1.549,3.018,3.625,3.018,6.229
		c0,2.953-1.172,5.343-3.516,7.168c-2.345,1.825-5.408,2.738-9.191,2.738c-4.165,0-7.445-1.077-9.84-3.23s-3.531-4.665-3.41-7.537
		l0.061-0.184h5.674c0.101,2.143,0.886,3.709,2.354,4.698c1.469,0.99,3.189,1.484,5.161,1.484c2.113,0,3.768-0.436,4.966-1.308
		C949.727,292.842,950.326,291.699,950.326,290.284z"/>
	<path d="M982.652,290.284c0-1.333-0.498-2.43-1.494-3.291s-2.883-1.61-5.659-2.246c-3.965-0.881-6.948-2.073-8.95-3.578
		s-3.003-3.558-3.003-6.158c0-2.702,1.127-5.006,3.381-6.91c2.253-1.904,5.191-2.856,8.813-2.856c3.803,0,6.826,0.995,9.069,2.983
		c2.244,1.99,3.315,4.41,3.215,7.26l-0.061,0.186h-5.674c0-1.456-0.6-2.764-1.796-3.923c-1.197-1.158-2.782-1.737-4.754-1.737
		c-2.113,0-3.683,0.472-4.709,1.414c-1.026,0.944-1.539,2.082-1.539,3.415c0,1.313,0.453,2.349,1.358,3.106
		c0.905,0.76,2.746,1.437,5.523,2.031c4.125,0.902,7.193,2.127,9.206,3.676c2.012,1.549,3.018,3.625,3.018,6.229
		c0,2.953-1.172,5.343-3.516,7.168c-2.345,1.825-5.408,2.738-9.191,2.738c-4.165,0-7.445-1.077-9.84-3.23s-3.531-4.665-3.41-7.537
		l0.061-0.184h5.674c0.101,2.143,0.886,3.709,2.354,4.698c1.469,0.99,3.189,1.484,5.161,1.484c2.113,0,3.768-0.436,4.966-1.308
		C982.053,292.842,982.652,291.699,982.652,290.284z"/>
</g>
</svg>
